# xmcd
#
# Track frame offsets:
#	150
#	13761
#	27812
#	42533
#	63296
#	72006
#	85840
#	97171
#	109895
#	121825
#	136899
#	151015
#
# Disc length: 2191 seconds
# Revision: 0
# Processed by: cddbd v1.5.2PL0 Copyright (c) Steve Scherf et al.
# Submitted via: dBpowerAMP V12.0
#
DISCID=96088d0c
DTITLE=Mark T. Small - Smokin' Blues
DYEAR=2014
DGENRE=Blues Acoustic
TTITLE0=Step It Up and Go
TTITLE1=Sell My Monkey
TTITLE2=My Daddy Was A Jockey
TTITLE3=Goin' Down South
TTITLE4=Buck Rag
TTITLE5=Walkin' The Dog
TTITLE6=Moanin' At Midnight
TTITLE7=Lamp Trimmed and Burning
TTITLE8=Early in The Morning
TTITLE9=Railroad Blues
TTITLE10=Stone Pony Blues
TTITLE11=America Medley
EXTD=
EXTT0=
EXTT1=
EXTT2=
EXTT3=
EXTT4=
EXTT5=
EXTT6=
EXTT7=
EXTT8=
EXTT9=
EXTT10=
EXTT11=
PLAYORDER=
